<?xml version="1.0" ?><svg data-name="Layer 1" id="Layer_1" viewBox="0 0 512 512" xmlns="http://www.w3.org/2000/svg"><path d="M292.32,345.76l-26.13,14.61a12,12,0,0,0-20.41,0l-26.1-14.59a3.16,3.16,0,0,0-4.7,2.76V383.6a3.16,3.16,0,0,0,4.7,2.77l25.57-14.29a12,12,0,0,0,21.47,0l25.6,14.31a3.17,3.17,0,0,0,4.71-2.76V348.53A3.17,3.17,0,0,0,292.32,345.76Z"/><path d="M256,413.48a9.18,9.18,0,1,0,9.19,9.18A9.18,9.18,0,0,0,256,413.48Z"/><path d="M446.32,470.38c0-1.25-3.92-114.09-83.72-164.79a157.19,157.19,0,0,0,43.71-70v0a158.3,158.3,0,0,0,6.78-45.67,156.18,156.18,0,0,0-11.19-58.16,11.14,11.14,0,0,0-.4-1.1L363.86,40.9a9.79,9.79,0,0,0-9.46-6.24l-99.21.82c-51.76.42-99.36,24.2-127.35,63.6a156,156,0,0,0-28.93,90.84,159.76,159.76,0,0,0,5,39,10.21,10.21,0,0,0,1.53,3.29,10.2,10.2,0,0,0,.38,3.24,157.24,157.24,0,0,0,43.68,70.1c-79.88,50.68-83.78,163.6-83.81,164.85l-.18,7h381ZM256,457.3,161.54,318a15.5,15.5,0,0,1,2.5-.5,158,158,0,0,0,184,0,14.52,14.52,0,0,1,2.39.49Zm0-130.63a135.76,135.76,0,0,1-129.33-92.81c.83-1.28,1.73-2.62,2.68-4l0,0c2.88-4.17,6.25-8.76,9.74-13.51,1.21-1.65,2.46-3.35,3.71-5.07,11.08-15.17,23.34-32.72,29.72-50,15.5,4.06,47.27,11,83.46,11s67.94-6.92,83.44-11a136.62,136.62,0,0,0,10.46,21.41c0,.07.09.15.14.23.72,1.23,1.49,2.44,2.25,3.65s1.39,2.31,2.12,3.45l.42.63c4.39,6.8,9.07,13.4,13.59,19.61,1.56,2.14,3.1,4.24,4.6,6.28l3,4.07.65.89q1.44,2,2.81,3.88c.24.32.46.64.68,1,.71,1,1.39,1.95,2.05,2.9.25.35.5.71.74,1.07.79,1.13,1.53,2.24,2.23,3.3l.27.42A135.91,135.91,0,0,1,256,326.67Z"/><path d="M207.31,225.69a17.21,17.21,0,1,0-17.19-17.21A17.24,17.24,0,0,0,207.31,225.69Z"/><path d="M304.69,225.69a17.21,17.21,0,1,0-17.22-17.21A17.24,17.24,0,0,0,304.69,225.69Z"/><path d="M314.53,250.88a90.66,90.66,0,0,1-117.06,0,6.79,6.79,0,0,0-8.75,10.38,104.22,104.22,0,0,0,134.56,0,6.78,6.78,0,0,0-8.75-10.36Z"/></svg>